<mxfile host="app.diagrams.net" agent="Mozilla/5.0 (Windows NT 10.0; Win64; x64) AppleWebKit/537.36 (KHTML, like Gecko) Chrome/138.0.0.0 Safari/537.36" version="28.0.6">
  <diagram name="PÃ¡gina-1" id="1D2M0F6dx1-pn8UfQb3a">
    <mxGraphModel grid="1" page="1" gridSize="10" guides="1" tooltips="1" connect="1" arrows="1" fold="1" pageScale="1" pageWidth="827" pageHeight="1169" math="0" shadow="0">
      <root>
        <mxCell id="0" />
        <mxCell id="1" parent="0" />
        <mxCell id="XbVN-6JvVd1bygFU78Us-1" style="edgeStyle=orthogonalEdgeStyle;rounded=1;orthogonalLoop=1;jettySize=auto;html=1;entryX=0;entryY=0.5;entryDx=0;entryDy=0;curved=0;endArrow=none;endFill=0;exitX=1;exitY=0.5;exitDx=0;exitDy=0;" edge="1" parent="1" source="XbVN-6JvVd1bygFU78Us-14">
          <mxGeometry relative="1" as="geometry">
            <mxPoint x="907" y="320" as="targetPoint" />
          </mxGeometry>
        </mxCell>
        <mxCell id="XbVN-6JvVd1bygFU78Us-2" value="" style="verticalLabelPosition=bottom;verticalAlign=top;html=1;shape=mxgraph.basic.rect;fillColor2=none;strokeWidth=1;size=20;indent=5;" vertex="1" parent="1">
          <mxGeometry x="300" y="120" width="480" height="240" as="geometry" />
        </mxCell>
        <mxCell id="XbVN-6JvVd1bygFU78Us-3" value="&lt;span style=&quot;font-size: 12px; font-weight: 400; text-wrap-mode: wrap;&quot;&gt;&amp;lt;&amp;lt;structured&amp;gt;&amp;gt;&lt;/span&gt;&lt;div&gt;Contrato&lt;/div&gt;" style="text;strokeColor=none;fillColor=none;html=1;fontSize=24;fontStyle=1;verticalAlign=middle;align=center;" vertex="1" parent="1">
          <mxGeometry x="455" y="135" width="170" height="40" as="geometry" />
        </mxCell>
        <mxCell id="XbVN-6JvVd1bygFU78Us-5" value="&amp;lt;&amp;lt;part&amp;gt;&amp;gt;&lt;div&gt;Archivo: ArchivoMultimedia&lt;/div&gt;" style="html=1;whiteSpace=wrap;" vertex="1" parent="1">
          <mxGeometry x="470" y="225" width="140" height="50" as="geometry" />
        </mxCell>
        <mxCell id="XbVN-6JvVd1bygFU78Us-7" value="" style="text;strokeColor=none;fillColor=none;align=left;verticalAlign=middle;spacingTop=-1;spacingLeft=4;spacingRight=4;rotatable=0;labelPosition=right;points=[];portConstraint=eastwest;" vertex="1" parent="1">
          <mxGeometry x="610" y="275" width="20" height="14" as="geometry" />
        </mxCell>
        <mxCell id="XbVN-6JvVd1bygFU78Us-14" value="" style="rounded=0;whiteSpace=wrap;html=1;" vertex="1" parent="1">
          <mxGeometry x="760" y="305" width="30" height="30" as="geometry" />
        </mxCell>
        <mxCell id="XbVN-6JvVd1bygFU78Us-15" value="&lt;font style=&quot;vertical-align: inherit;&quot;&gt;&lt;font style=&quot;vertical-align: inherit;&quot;&gt;&amp;lt;&amp;lt;port&amp;gt;&amp;gt;&lt;/font&gt;&lt;/font&gt;&lt;div&gt;interfazCliente : Cliente&amp;nbsp;&lt;/div&gt;" style="html=1;whiteSpace=wrap;" vertex="1" parent="1">
          <mxGeometry x="920" y="295" width="120" height="50" as="geometry" />
        </mxCell>
        <mxCell id="XbVN-6JvVd1bygFU78Us-16" value="" style="rounded=0;whiteSpace=wrap;html=1;" vertex="1" parent="1">
          <mxGeometry x="900" y="305" width="30" height="30" as="geometry" />
        </mxCell>
        <mxCell id="XbVN-6JvVd1bygFU78Us-18" value="&lt;font style=&quot;vertical-align: inherit;&quot;&gt;&lt;font style=&quot;vertical-align: inherit;&quot;&gt;&amp;lt;&amp;lt;port&amp;gt;&amp;gt;&lt;/font&gt;&lt;/font&gt;&lt;div&gt;interfazAdmin : Admin&amp;nbsp; &amp;nbsp;&lt;/div&gt;" style="html=1;whiteSpace=wrap;" vertex="1" parent="1">
          <mxGeometry x="920" y="175" width="120" height="50" as="geometry" />
        </mxCell>
        <mxCell id="XbVN-6JvVd1bygFU78Us-19" value="" style="rounded=0;whiteSpace=wrap;html=1;" vertex="1" parent="1">
          <mxGeometry x="760" y="185" width="30" height="30" as="geometry" />
        </mxCell>
        <mxCell id="XbVN-6JvVd1bygFU78Us-20" value="" style="rounded=0;whiteSpace=wrap;html=1;" vertex="1" parent="1">
          <mxGeometry x="900" y="185" width="30" height="30" as="geometry" />
        </mxCell>
        <mxCell id="XbVN-6JvVd1bygFU78Us-26" style="rounded=0;orthogonalLoop=1;jettySize=auto;html=1;exitX=1;exitY=0.5;exitDx=0;exitDy=0;endArrow=none;endFill=0;" edge="1" parent="1" source="XbVN-6JvVd1bygFU78Us-27" target="XbVN-6JvVd1bygFU78Us-32">
          <mxGeometry relative="1" as="geometry" />
        </mxCell>
        <mxCell id="XbVN-6JvVd1bygFU78Us-27" value="" style="rounded=0;whiteSpace=wrap;html=1;" vertex="1" parent="1">
          <mxGeometry x="1030" y="185" width="30" height="30" as="geometry" />
        </mxCell>
        <mxCell id="XbVN-6JvVd1bygFU78Us-28" style="rounded=0;orthogonalLoop=1;jettySize=auto;html=1;entryX=0;entryY=0.5;entryDx=0;entryDy=0;endArrow=none;endFill=0;" edge="1" parent="1" source="XbVN-6JvVd1bygFU78Us-29" target="XbVN-6JvVd1bygFU78Us-33">
          <mxGeometry relative="1" as="geometry" />
        </mxCell>
        <mxCell id="XbVN-6JvVd1bygFU78Us-29" value="" style="rounded=0;whiteSpace=wrap;html=1;" vertex="1" parent="1">
          <mxGeometry x="1030" y="309" width="30" height="30" as="geometry" />
        </mxCell>
        <mxCell id="XbVN-6JvVd1bygFU78Us-32" value="" style="rounded=0;whiteSpace=wrap;html=1;" vertex="1" parent="1">
          <mxGeometry x="1160" y="185" width="30" height="30" as="geometry" />
        </mxCell>
        <mxCell id="XbVN-6JvVd1bygFU78Us-33" value="" style="rounded=0;whiteSpace=wrap;html=1;" vertex="1" parent="1">
          <mxGeometry x="1150" y="309" width="30" height="30" as="geometry" />
        </mxCell>
        <mxCell id="XbVN-6JvVd1bygFU78Us-36" style="rounded=1;orthogonalLoop=1;jettySize=auto;html=1;entryX=0;entryY=0.5;entryDx=0;entryDy=0;endArrow=none;endFill=0;" edge="1" parent="1" source="XbVN-6JvVd1bygFU78Us-19" target="XbVN-6JvVd1bygFU78Us-20">
          <mxGeometry relative="1" as="geometry">
            <mxPoint x="927" y="209.38" as="targetPoint" />
            <mxPoint x="800" y="209.38" as="sourcePoint" />
          </mxGeometry>
        </mxCell>
        <mxCell id="XbVN-6JvVd1bygFU78Us-37" value="&lt;table&gt;&lt;tbody&gt;&lt;tr&gt;&lt;td data-start=&quot;2163&quot; data-end=&quot;2188&quot; data-col-size=&quot;sm&quot;&gt;&lt;/td&gt;&lt;/tr&gt;&lt;/tbody&gt;&lt;/table&gt;&lt;table&gt;&lt;tbody&gt;&lt;tr&gt;&lt;td data-start=&quot;2188&quot; data-end=&quot;2214&quot; data-col-size=&quot;sm&quot;&gt;1..*&lt;/td&gt;&lt;/tr&gt;&lt;/tbody&gt;&lt;/table&gt;" style="text;whiteSpace=wrap;html=1;" vertex="1" parent="1">
          <mxGeometry x="1060" y="295" width="60" height="50" as="geometry" />
        </mxCell>
        <mxCell id="XbVN-6JvVd1bygFU78Us-38" value="&lt;table&gt;&lt;tbody&gt;&lt;tr&gt;&lt;td data-start=&quot;2163&quot; data-end=&quot;2188&quot; data-col-size=&quot;sm&quot;&gt;&lt;/td&gt;&lt;/tr&gt;&lt;/tbody&gt;&lt;/table&gt;1.*" style="text;whiteSpace=wrap;html=1;" vertex="1" parent="1">
          <mxGeometry x="1130" y="295" width="30" height="40" as="geometry" />
        </mxCell>
        <mxCell id="XbVN-6JvVd1bygFU78Us-41" value="&lt;table&gt;&lt;tbody&gt;&lt;tr&gt;&lt;td data-start=&quot;2163&quot; data-end=&quot;2188&quot; data-col-size=&quot;sm&quot;&gt;&lt;/td&gt;&lt;/tr&gt;&lt;/tbody&gt;&lt;/table&gt;&lt;table&gt;&lt;tbody&gt;&lt;tr&gt;&lt;td data-start=&quot;2188&quot; data-end=&quot;2214&quot; data-col-size=&quot;sm&quot;&gt;1..*&lt;/td&gt;&lt;/tr&gt;&lt;/tbody&gt;&lt;/table&gt;" style="text;whiteSpace=wrap;html=1;" vertex="1" parent="1">
          <mxGeometry x="1060" y="165" width="60" height="50" as="geometry" />
        </mxCell>
        <mxCell id="XbVN-6JvVd1bygFU78Us-42" value="1" style="text;whiteSpace=wrap;html=1;" vertex="1" parent="1">
          <mxGeometry x="1150" y="175" width="60" height="50" as="geometry" />
        </mxCell>
        <mxCell id="XbVN-6JvVd1bygFU78Us-43" value="1.*" style="text;whiteSpace=wrap;html=1;" vertex="1" parent="1">
          <mxGeometry x="792" y="165" width="60" height="50" as="geometry" />
        </mxCell>
        <mxCell id="XbVN-6JvVd1bygFU78Us-44" value="&lt;table&gt;&lt;tbody&gt;&lt;tr&gt;&lt;td data-start=&quot;2163&quot; data-end=&quot;2188&quot; data-col-size=&quot;sm&quot;&gt;&lt;/td&gt;&lt;/tr&gt;&lt;/tbody&gt;&lt;/table&gt;&lt;table&gt;&lt;tbody&gt;&lt;tr&gt;&lt;td data-start=&quot;2188&quot; data-end=&quot;2214&quot; data-col-size=&quot;sm&quot;&gt;1..*&lt;/td&gt;&lt;/tr&gt;&lt;/tbody&gt;&lt;/table&gt;" style="text;whiteSpace=wrap;html=1;" vertex="1" parent="1">
          <mxGeometry x="870" y="165" width="60" height="50" as="geometry" />
        </mxCell>
        <mxCell id="XbVN-6JvVd1bygFU78Us-45" value="1.*" style="text;whiteSpace=wrap;html=1;" vertex="1" parent="1">
          <mxGeometry x="790" y="285" width="60" height="50" as="geometry" />
        </mxCell>
        <mxCell id="XbVN-6JvVd1bygFU78Us-46" value="&lt;table&gt;&lt;tbody&gt;&lt;tr&gt;&lt;td data-start=&quot;2163&quot; data-end=&quot;2188&quot; data-col-size=&quot;sm&quot;&gt;&lt;/td&gt;&lt;/tr&gt;&lt;/tbody&gt;&lt;/table&gt;&lt;table&gt;&lt;tbody&gt;&lt;tr&gt;&lt;td data-start=&quot;2188&quot; data-end=&quot;2214&quot; data-col-size=&quot;sm&quot;&gt;1..*&lt;/td&gt;&lt;/tr&gt;&lt;/tbody&gt;&lt;/table&gt;" style="text;whiteSpace=wrap;html=1;" vertex="1" parent="1">
          <mxGeometry x="870" y="289" width="60" height="50" as="geometry" />
        </mxCell>
        <mxCell id="XbVN-6JvVd1bygFU78Us-54" value="&amp;lt;&amp;lt;note&amp;gt;&amp;gt;&lt;div&gt;&amp;nbsp;CargarContrato&amp;nbsp;&lt;/div&gt;&lt;div&gt;EnviarContrato&lt;/div&gt;&lt;div&gt;DescargarContrato&lt;br&gt;&lt;/div&gt;" style="html=1;whiteSpace=wrap;" vertex="1" parent="1">
          <mxGeometry x="1170" y="285" width="130" height="80" as="geometry" />
        </mxCell>
        <mxCell id="XbVN-6JvVd1bygFU78Us-55" value="&amp;lt;&amp;lt;note&amp;gt;&amp;gt;&lt;div&gt;&amp;nbsp;CargarContrato&amp;nbsp;&lt;/div&gt;&lt;div&gt;EnviarContrato&lt;/div&gt;&lt;div&gt;DescargarContrato&lt;br&gt;Eliminar Contrato&amp;nbsp;&lt;/div&gt;" style="html=1;whiteSpace=wrap;" vertex="1" parent="1">
          <mxGeometry x="1180" y="160" width="130" height="80" as="geometry" />
        </mxCell>
      </root>
    </mxGraphModel>
  </diagram>
</mxfile>
